<svg xmlns="http://www.w3.org/2000/svg" xmlns:xlink="http://www.w3.org/1999/xlink" width="1080" zoomAndPan="magnify" viewBox="0 0 810 809.999993" height="1080" preserveAspectRatio="xMidYMid meet" version="1.0"><path fill="#ffcc00" d="M 397.527344 1.960938 C 397.8125 0.925781 398.746094 0.214844 399.8125 0.214844 C 400.878906 0.214844 401.8125 0.925781 402.09375 1.960938 L 411.925781 37.714844 L 448.765625 36.070312 C 449.832031 36.023438 450.796875 36.695312 451.128906 37.714844 C 451.453125 38.734375 451.0625 39.851562 450.179688 40.441406 L 419.410156 60.890625 L 432.351562 95.632812 C 432.726562 96.636719 432.390625 97.765625 431.527344 98.398438 C 430.664062 99.023438 429.488281 98.996094 428.65625 98.328125 L 399.8125 75.21875 L 370.96875 98.328125 C 370.136719 98.996094 368.964844 99.023438 368.101562 98.398438 C 367.238281 97.765625 366.898438 96.636719 367.273438 95.632812 L 380.210938 60.890625 L 349.449219 40.441406 C 348.558594 39.851562 348.171875 38.734375 348.5 37.714844 C 348.828125 36.695312 349.796875 36.023438 350.859375 36.070312 L 387.695312 37.714844 L 397.527344 1.960938 " fill-opacity="1" fill-rule="evenodd"/><path fill="#ffcc00" d="M 223.4375 48.886719 C 223.714844 47.855469 224.652344 47.136719 225.71875 47.136719 C 226.785156 47.136719 227.71875 47.855469 228.003906 48.886719 L 237.832031 84.640625 L 274.671875 82.996094 C 275.734375 82.945312 276.703125 83.621094 277.03125 84.640625 C 277.363281 85.660156 276.972656 86.777344 276.082031 87.363281 L 245.320312 107.820312 L 258.257812 142.554688 C 258.632812 143.5625 258.292969 144.691406 257.429688 145.324219 C 256.566406 145.953125 255.398438 145.925781 254.5625 145.257812 L 225.71875 122.144531 L 196.871094 145.257812 C 196.042969 145.925781 194.867188 145.953125 194.003906 145.324219 C 193.144531 144.691406 192.808594 143.5625 193.175781 142.554688 L 206.121094 107.820312 L 175.355469 87.363281 C 174.464844 86.777344 174.078125 85.660156 174.40625 84.640625 C 174.738281 83.621094 175.699219 82.945312 176.765625 82.996094 L 213.605469 84.640625 L 223.4375 48.886719 " fill-opacity="1" fill-rule="evenodd"/><path fill="#ffcc00" d="M 95.988281 177.089844 C 96.273438 176.0625 97.207031 175.34375 98.273438 175.34375 C 99.339844 175.34375 100.273438 176.0625 100.554688 177.089844 L 110.386719 212.847656 L 147.226562 211.203125 C 148.292969 211.152344 149.253906 211.828125 149.582031 212.847656 C 149.914062 213.867188 149.523438 214.980469 148.640625 215.570312 L 117.871094 236.027344 L 130.808594 270.761719 C 131.183594 271.769531 130.84375 272.898438 129.988281 273.527344 C 129.125 274.160156 127.949219 274.132812 127.113281 273.464844 L 98.273438 250.351562 L 69.429688 273.464844 C 68.59375 274.132812 67.417969 274.160156 66.5625 273.527344 C 65.699219 272.898438 65.359375 271.769531 65.734375 270.761719 L 78.671875 236.027344 L 47.90625 215.570312 C 47.019531 214.980469 46.628906 213.867188 46.960938 212.847656 C 47.289062 211.828125 48.257812 211.152344 49.316406 211.203125 L 86.15625 212.847656 L 95.988281 177.089844 " fill-opacity="1" fill-rule="evenodd"/><path fill="#ffcc00" d="M 49.339844 352.226562 C 49.625 351.191406 50.558594 350.476562 51.625 350.476562 C 52.6875 350.476562 53.621094 351.191406 53.90625 352.226562 L 63.738281 387.984375 L 100.578125 386.332031 C 101.644531 386.289062 102.605469 386.960938 102.9375 387.984375 C 103.265625 389 102.878906 390.113281 101.988281 390.707031 L 71.222656 411.15625 L 84.160156 445.898438 C 84.535156 446.898438 84.199219 448.035156 83.339844 448.660156 C 82.476562 449.292969 81.300781 449.265625 80.46875 448.597656 L 51.625 425.480469 L 22.78125 448.597656 C 21.945312 449.265625 20.777344 449.292969 19.914062 448.660156 C 19.050781 448.035156 18.710938 446.898438 19.085938 445.898438 L 32.023438 411.15625 L 1.261719 390.707031 C 0.371094 390.113281 -0.0195312 389 0.3125 387.984375 C 0.640625 386.960938 1.609375 386.289062 2.667969 386.332031 L 39.511719 387.984375 L 49.339844 352.226562 " fill-opacity="1" fill-rule="evenodd"/><path fill="#ffcc00" d="M 95.988281 527.359375 C 96.273438 526.328125 97.207031 525.609375 98.273438 525.609375 C 99.339844 525.609375 100.273438 526.328125 100.554688 527.359375 L 110.386719 563.113281 L 147.226562 561.46875 C 148.292969 561.421875 149.253906 562.097656 149.582031 563.113281 C 149.914062 564.132812 149.523438 565.25 148.640625 565.835938 L 117.871094 586.292969 L 130.808594 621.03125 C 131.183594 622.035156 130.84375 623.164062 129.988281 623.796875 C 129.125 624.425781 127.949219 624.398438 127.113281 623.734375 L 98.273438 600.617188 L 69.429688 623.734375 C 68.59375 624.398438 67.417969 624.425781 66.5625 623.796875 C 65.699219 623.164062 65.359375 622.035156 65.734375 621.03125 L 78.671875 586.292969 L 47.90625 565.835938 C 47.019531 565.25 46.628906 564.132812 46.960938 563.113281 C 47.289062 562.097656 48.257812 561.421875 49.316406 561.46875 L 86.15625 563.113281 L 95.988281 527.359375 " fill-opacity="1" fill-rule="evenodd"/><path fill="#ffcc00" d="M 223.4375 655.5625 C 223.714844 654.535156 224.652344 653.816406 225.71875 653.816406 C 226.785156 653.816406 227.71875 654.535156 228.003906 655.5625 L 237.832031 691.320312 L 274.671875 689.675781 C 275.734375 689.625 276.703125 690.296875 277.03125 691.320312 C 277.363281 692.339844 276.972656 693.457031 276.082031 694.042969 L 245.320312 714.5 L 258.257812 749.234375 C 258.632812 750.242188 258.292969 751.371094 257.429688 752 C 256.566406 752.632812 255.398438 752.605469 254.5625 751.9375 L 225.71875 728.824219 L 196.871094 751.9375 C 196.042969 752.605469 194.867188 752.632812 194.003906 752 C 193.144531 751.371094 192.808594 750.242188 193.175781 749.234375 L 206.121094 714.5 L 175.355469 694.042969 C 174.464844 693.457031 174.078125 692.339844 174.40625 691.320312 C 174.738281 690.296875 175.699219 689.625 176.765625 689.675781 L 213.605469 691.320312 L 223.4375 655.5625 " fill-opacity="1" fill-rule="evenodd"/><path fill="#ffcc00" d="M 397.527344 712.859375 C 397.8125 711.824219 398.746094 711.109375 399.8125 711.109375 C 400.878906 711.109375 401.8125 711.824219 402.09375 712.859375 L 411.925781 748.609375 L 448.765625 746.964844 C 449.832031 746.921875 450.796875 747.59375 451.128906 748.609375 C 451.453125 749.632812 451.0625 750.746094 450.179688 751.339844 L 419.410156 771.789062 L 432.351562 806.53125 C 432.726562 807.53125 432.390625 808.660156 431.527344 809.292969 C 430.664062 809.921875 429.488281 809.894531 428.65625 809.230469 L 399.8125 786.113281 L 370.96875 809.230469 C 370.136719 809.894531 368.964844 809.921875 368.101562 809.292969 C 367.238281 808.660156 366.898438 807.53125 367.273438 806.53125 L 380.210938 771.789062 L 349.449219 751.339844 C 348.558594 750.746094 348.171875 749.632812 348.5 748.609375 C 348.828125 747.59375 349.796875 746.921875 350.859375 746.964844 L 387.695312 748.609375 L 397.527344 712.859375 " fill-opacity="1" fill-rule="evenodd"/><path fill="#ffcc00" d="M 576.773438 664.542969 C 577.058594 663.511719 577.992188 662.792969 579.058594 662.792969 C 580.125 662.792969 581.058594 663.511719 581.34375 664.542969 L 591.171875 700.296875 L 628.011719 698.652344 C 629.078125 698.605469 630.042969 699.28125 630.367188 700.296875 C 630.699219 701.316406 630.3125 702.433594 629.425781 703.019531 L 598.660156 723.476562 L 611.597656 758.210938 C 611.96875 759.21875 611.632812 760.347656 610.773438 760.980469 C 609.910156 761.609375 608.734375 761.582031 607.902344 760.917969 L 579.058594 737.800781 L 550.214844 760.917969 C 549.382812 761.582031 548.207031 761.609375 547.347656 760.980469 C 546.484375 760.347656 546.144531 759.21875 546.519531 758.210938 L 559.460938 723.476562 L 528.691406 703.019531 C 527.804688 702.433594 527.417969 701.316406 527.75 700.296875 C 528.074219 699.28125 529.039062 698.605469 530.105469 698.652344 L 566.945312 700.296875 L 576.773438 664.542969 " fill-opacity="1" fill-rule="evenodd"/><path fill="#ffcc00" d="M 707.992188 532.542969 C 708.277344 531.507812 709.207031 530.792969 710.277344 530.792969 C 711.339844 530.792969 712.277344 531.507812 712.558594 532.542969 L 722.390625 568.292969 L 759.230469 566.648438 C 760.296875 566.605469 761.257812 567.277344 761.589844 568.292969 C 761.917969 569.316406 761.53125 570.429688 760.640625 571.023438 L 729.875 591.472656 L 742.8125 626.214844 C 743.1875 627.214844 742.851562 628.351562 741.988281 628.976562 C 741.128906 629.605469 739.953125 629.582031 739.117188 628.914062 L 710.277344 605.796875 L 681.433594 628.914062 C 680.597656 629.582031 679.425781 629.605469 678.5625 628.976562 C 677.703125 628.351562 677.363281 627.214844 677.738281 626.214844 L 690.675781 591.472656 L 659.910156 571.023438 C 659.023438 570.429688 658.632812 569.316406 658.964844 568.292969 C 659.292969 567.277344 660.261719 566.605469 661.324219 566.648438 L 698.164062 568.292969 L 707.992188 532.542969 " fill-opacity="1" fill-rule="evenodd"/><path fill="#ffcc00" d="M 756.023438 352.226562 C 756.304688 351.191406 757.238281 350.476562 758.304688 350.476562 C 759.371094 350.476562 760.304688 351.191406 760.589844 352.226562 L 770.421875 387.984375 L 807.257812 386.332031 C 808.320312 386.289062 809.289062 386.960938 809.617188 387.984375 C 809.949219 389 809.558594 390.113281 808.671875 390.707031 L 777.90625 411.15625 L 790.84375 445.898438 C 791.21875 446.898438 790.878906 448.035156 790.015625 448.660156 C 789.15625 449.292969 787.980469 449.265625 787.148438 448.597656 L 758.304688 425.480469 L 729.460938 448.597656 C 728.628906 449.265625 727.453125 449.292969 726.589844 448.660156 C 725.730469 448.035156 725.390625 446.898438 725.765625 445.898438 L 738.707031 411.15625 L 707.9375 390.707031 C 707.054688 390.113281 706.664062 389 706.996094 387.984375 C 707.320312 386.960938 708.285156 386.289062 709.351562 386.332031 L 746.191406 387.984375 L 756.023438 352.226562 " fill-opacity="1" fill-rule="evenodd"/><path fill="#ffcc00" d="M 707.992188 171.910156 C 708.277344 170.875 709.207031 170.160156 710.277344 170.160156 C 711.339844 170.160156 712.277344 170.875 712.558594 171.910156 L 722.390625 207.667969 L 759.230469 206.023438 C 760.296875 205.972656 761.257812 206.644531 761.589844 207.667969 C 761.917969 208.683594 761.53125 209.796875 760.640625 210.390625 L 729.875 230.839844 L 742.8125 265.582031 C 743.1875 266.582031 742.851562 267.71875 741.988281 268.34375 C 741.128906 268.976562 739.953125 268.949219 739.117188 268.28125 L 710.277344 245.167969 L 681.433594 268.28125 C 680.597656 268.949219 679.425781 268.976562 678.5625 268.34375 C 677.703125 267.71875 677.363281 266.582031 677.738281 265.582031 L 690.675781 230.839844 L 659.910156 210.390625 C 659.023438 209.796875 658.632812 208.683594 658.964844 207.667969 C 659.292969 206.644531 660.261719 205.972656 661.324219 206.023438 L 698.164062 207.667969 L 707.992188 171.910156 " fill-opacity="1" fill-rule="evenodd"/><path fill="#ffcc00" d="M 576.773438 39.910156 C 577.058594 38.875 577.992188 38.160156 579.058594 38.160156 C 580.125 38.160156 581.058594 38.875 581.34375 39.910156 L 591.171875 75.664062 L 628.011719 74.019531 C 629.078125 73.96875 630.042969 74.644531 630.367188 75.664062 C 630.699219 76.6875 630.3125 77.796875 629.425781 78.390625 L 598.660156 98.84375 L 611.597656 133.578125 C 611.96875 134.585938 611.632812 135.714844 610.773438 136.34375 C 609.910156 136.976562 608.734375 136.949219 607.902344 136.28125 L 579.058594 113.167969 L 550.214844 136.28125 C 549.382812 136.949219 548.207031 136.976562 547.347656 136.34375 C 546.484375 135.714844 546.144531 134.585938 546.519531 133.578125 L 559.460938 98.84375 L 528.691406 78.390625 C 527.804688 77.796875 527.417969 76.6875 527.75 75.664062 C 528.074219 74.644531 529.039062 73.96875 530.105469 74.019531 L 566.945312 75.664062 L 576.773438 39.910156 " fill-opacity="1" fill-rule="evenodd"/></svg>