<svg xmlns="http://www.w3.org/2000/svg" xmlns:xlink="http://www.w3.org/1999/xlink" width="425" zoomAndPan="magnify" viewBox="0 0 318.75 296.999993" height="396" preserveAspectRatio="xMidYMid meet" version="1.0"><defs><clipPath id="2f9c53a72b"><path d="M 0 0.117188 L 317.75 0.117188 L 317.75 296.882812 L 0 296.882812 Z M 0 0.117188 " clip-rule="nonzero"/></clipPath><clipPath id="12147d5e5b"><path d="M 63.605469 68.109375 L 223.980469 68.109375 L 223.980469 228.484375 L 63.605469 228.484375 Z M 63.605469 68.109375 " clip-rule="nonzero"/></clipPath></defs><g clip-path="url(#2f9c53a72b)"><path fill="#ffffff" d="M 307.871094 192.820312 C 307.976562 192.574219 308.085938 192.332031 308.191406 192.085938 C 308.625 191.070312 309.046875 190.046875 309.460938 189.023438 C 309.664062 188.523438 309.863281 188.023438 310.0625 187.523438 C 310.414062 186.628906 310.761719 185.734375 311.097656 184.835938 C 311.351562 184.15625 311.597656 183.480469 311.84375 182.800781 C 312.121094 182.023438 312.402344 181.25 312.667969 180.46875 C 312.976562 179.578125 313.269531 178.683594 313.5625 177.785156 C 313.757812 177.183594 313.960938 176.582031 314.148438 175.976562 C 314.628906 174.449219 315.085938 172.914062 315.519531 171.375 C 316.734375 167.066406 317.886719 162.078125 316.195312 157.441406 C 314.640625 153.199219 310.804688 149.765625 305.660156 148.019531 C 304.496094 147.625 303.308594 147.332031 302.109375 147.105469 C 302.058594 146.988281 302 146.871094 301.929688 146.765625 C 301.277344 145.738281 300.136719 145.398438 299.335938 145.203125 C 298.101562 144.90625 297.910156 145.28125 296.875 144.984375 C 295.410156 144.5625 295.347656 143.683594 294.136719 143.273438 C 292.78125 142.816406 291.210938 143.355469 290.207031 144.128906 C 288.773438 145.226562 287.828125 147.316406 288.539062 149.328125 C 289.28125 151.4375 291.519531 152.535156 293.140625 152.332031 C 294.636719 152.140625 294.8125 150.933594 296.921875 150.613281 C 297.726562 150.488281 298.105469 150.601562 299.507812 150.367188 C 301.03125 150.109375 301.46875 149.824219 301.636719 149.679688 C 302.714844 149.886719 303.777344 150.15625 304.820312 150.507812 C 309.140625 151.972656 312.46875 154.902344 313.726562 158.34375 C 315.152344 162.246094 314.097656 166.75 312.996094 170.664062 C 312.566406 172.179688 312.113281 173.691406 311.644531 175.195312 C 311.457031 175.785156 311.261719 176.371094 311.070312 176.960938 C 310.78125 177.851562 310.488281 178.738281 310.183594 179.625 C 309.921875 180.382812 309.652344 181.136719 309.382812 181.890625 C 309.136719 182.574219 308.886719 183.253906 308.632812 183.933594 C 308.304688 184.804688 307.972656 185.671875 307.628906 186.539062 C 307.429688 187.050781 307.222656 187.5625 307.015625 188.070312 C 306.613281 189.0625 306.207031 190.050781 305.785156 191.035156 C 305.671875 191.304688 305.550781 191.570312 305.433594 191.839844 C 303.242188 196.878906 300.804688 201.816406 298.132812 206.621094 C 298.089844 206.703125 298.042969 206.785156 297.996094 206.867188 C 297.332031 206.976562 296.71875 207.390625 296.367188 208.007812 C 291.601562 216.332031 286.097656 224.269531 280.007812 231.59375 C 277.679688 234.394531 274.910156 237.558594 271.519531 239.652344 C 268.121094 241.746094 264.414062 242.457031 261.347656 241.601562 L 261.261719 241.578125 C 258.164062 240.851562 255.257812 238.4375 253.292969 234.960938 C 251.335938 231.488281 250.4375 227.382812 249.753906 223.808594 C 247.953125 214.429688 246.964844 204.800781 246.8125 195.183594 C 246.800781 194.484375 246.457031 193.867188 245.933594 193.46875 C 245.933594 193.402344 245.933594 193.339844 245.933594 193.273438 C 245.910156 187.726562 246.164062 182.179688 246.6875 176.660156 C 246.710938 176.394531 246.730469 176.125 246.757812 175.859375 C 246.867188 174.777344 246.992188 173.699219 247.117188 172.621094 C 247.183594 172.09375 247.246094 171.5625 247.3125 171.035156 C 247.433594 170.097656 247.5625 169.160156 247.699219 168.226562 C 247.800781 167.523438 247.910156 166.824219 248.023438 166.125 C 248.148438 165.320312 248.277344 164.515625 248.417969 163.714844 C 248.578125 162.804688 248.75 161.898438 248.921875 160.996094 C 249.039062 160.375 249.152344 159.753906 249.277344 159.140625 C 249.59375 157.59375 249.925781 156.054688 250.28125 154.523438 C 251.207031 150.5625 252.457031 146.105469 255.585938 143.378906 C 258.351562 140.972656 262.679688 140.011719 267.171875 140.820312 C 268.257812 141.011719 269.316406 141.292969 270.359375 141.632812 C 270.4375 141.839844 270.6875 142.304688 271.890625 143.257812 C 273.007812 144.140625 273.390625 144.226562 274.035156 144.71875 C 275.726562 146.023438 275.300781 147.164062 276.519531 148.054688 C 277.839844 149.015625 280.328125 149.132812 282 147.644531 C 283.59375 146.226562 283.769531 143.941406 283.046875 142.285156 C 282.539062 141.125 281.421875 139.894531 280.019531 139.640625 C 278.757812 139.410156 278.28125 140.152344 276.792969 139.816406 C 275.742188 139.578125 275.757812 139.152344 274.535156 138.820312 C 273.734375 138.601562 272.570312 138.347656 271.507812 138.933594 C 271.394531 138.996094 271.285156 139.066406 271.183594 139.144531 C 270.023438 138.765625 268.84375 138.449219 267.632812 138.234375 C 262.289062 137.28125 257.269531 138.429688 253.859375 141.398438 C 250.140625 144.640625 248.742188 149.5625 247.722656 153.925781 C 247.359375 155.480469 247.019531 157.046875 246.703125 158.617188 C 246.574219 159.238281 246.464844 159.863281 246.34375 160.484375 C 246.167969 161.410156 245.992188 162.335938 245.828125 163.265625 C 245.6875 164.074219 245.558594 164.882812 245.429688 165.695312 C 245.316406 166.414062 245.203125 167.132812 245.097656 167.855469 C 244.957031 168.796875 244.828125 169.738281 244.707031 170.683594 C 244.636719 171.230469 244.570312 171.777344 244.507812 172.324219 C 244.378906 173.410156 244.253906 174.496094 244.144531 175.585938 C 244.117188 175.871094 244.09375 176.15625 244.066406 176.445312 C 243.539062 182.003906 243.285156 187.597656 243.308594 193.203125 C 243.308594 193.285156 243.308594 193.363281 243.308594 193.445312 C 242.773438 193.839844 242.421875 194.472656 242.433594 195.1875 C 242.585938 205.078125 243.601562 214.984375 245.453125 224.632812 C 246.207031 228.546875 247.195312 233.066406 249.480469 237.113281 C 250.28125 238.527344 251.214844 239.8125 252.25 240.9375 C 253.433594 242.222656 253.394531 244.210938 252.203125 245.488281 C 250.75 247.046875 249.257812 248.574219 247.738281 250.0625 C 246.816406 250.964844 246.457031 252.226562 246.660156 253.414062 C 220.089844 278.300781 184.945312 292.34375 148.210938 292.34375 C 68.8125 292.34375 4.214844 227.746094 4.214844 148.34375 C 4.214844 68.945312 68.808594 4.347656 148.210938 4.347656 C 203.539062 4.347656 253.933594 36.421875 277.792969 85.484375 C 277.175781 86.519531 277.058594 87.832031 277.601562 89.011719 C 279.503906 93.148438 281.210938 97.429688 282.710938 101.742188 C 278.449219 104.324219 275.589844 108.996094 275.589844 114.347656 C 275.589844 122.492188 282.191406 129.09375 290.335938 129.09375 C 298.480469 129.09375 305.085938 122.492188 305.085938 114.347656 C 305.085938 106.203125 298.480469 99.601562 290.335938 99.601562 C 290.222656 99.601562 290.109375 99.613281 289.996094 99.617188 C 288.394531 94.953125 286.546875 90.320312 284.492188 85.84375 C 283.933594 84.628906 282.816406 83.855469 281.589844 83.675781 C 270.757812 61.308594 254.515625 42.058594 233.984375 27.460938 C 208.832031 9.585938 179.171875 0.136719 148.210938 0.136719 C 66.484375 0.136719 0 66.621094 0 148.34375 C 0 230.066406 66.484375 296.554688 148.210938 296.554688 C 186.03125 296.554688 222.210938 282.09375 249.5625 256.46875 C 249.835938 256.527344 250.109375 256.566406 250.390625 256.566406 C 251.351562 256.566406 252.304688 256.203125 253.042969 255.488281 C 255.667969 252.914062 258.210938 250.226562 260.644531 247.460938 C 261.308594 246.710938 262.265625 246.257812 263.265625 246.3125 C 263.515625 246.324219 263.765625 246.332031 264.011719 246.332031 C 267.25 246.332031 270.667969 245.320312 273.816406 243.375 C 277.769531 240.9375 280.820312 237.460938 283.371094 234.390625 C 289.640625 226.851562 295.304688 218.679688 300.207031 210.109375 C 300.566406 209.480469 300.570312 208.753906 300.296875 208.136719 C 300.335938 208.070312 300.371094 208 300.410156 207.929688 C 303.148438 203.011719 305.636719 197.96875 307.871094 192.820312 Z M 301.902344 114.347656 C 301.902344 120.734375 296.722656 125.914062 290.335938 125.914062 C 283.949219 125.914062 278.769531 120.734375 278.769531 114.347656 C 278.769531 107.960938 283.949219 102.78125 290.335938 102.78125 C 296.722656 102.78125 301.902344 107.960938 301.902344 114.347656 Z M 301.902344 114.347656 " fill-opacity="1" fill-rule="nonzero"/></g><path fill="#ffffff" d="M 290.335938 121.957031 C 294.53125 121.957031 297.945312 118.542969 297.945312 114.347656 C 297.945312 110.152344 294.53125 106.742188 290.335938 106.742188 C 286.140625 106.742188 282.730469 110.152344 282.730469 114.347656 C 282.730469 118.542969 286.140625 121.957031 290.335938 121.957031 Z M 290.335938 109.269531 C 293.136719 109.269531 295.414062 111.546875 295.414062 114.347656 C 295.414062 117.148438 293.136719 119.425781 290.335938 119.425781 C 287.535156 119.425781 285.257812 117.148438 285.257812 114.347656 C 285.257812 111.546875 287.535156 109.269531 290.335938 109.269531 Z M 290.335938 109.269531 " fill-opacity="1" fill-rule="nonzero"/><g clip-path="url(#12147d5e5b)"><path fill="#ffffff" d="M 224.027344 121.585938 L 170.554688 121.585938 L 170.554688 68.109375 L 117.082031 68.109375 L 117.082031 121.585938 L 63.605469 121.585938 L 63.605469 175.058594 L 117.082031 175.058594 L 117.082031 228.53125 L 170.554688 228.53125 L 170.554688 175.058594 L 224.027344 175.058594 Z M 224.027344 121.585938 " fill-opacity="1" fill-rule="nonzero"/></g></svg>