<svg xmlns="http://www.w3.org/2000/svg" width="204.245" height="53.027" viewBox="0 0 204.245 53.027"><path d="M23.759,0A23.785,23.785,0,0,0,.806,29.923a.647.647,0,0,0,1.252-.331,22.467,22.467,0,1,1,44.165-5.834A22.393,22.393,0,0,1,31.469,44.87a13.558,13.558,0,0,1-6.567.647l1.057-12.5a1.539,1.539,0,0,1,.784,1.057,1.473,1.473,0,0,1-1.007,1.6l-.295,3.647a25.136,25.136,0,0,0,5.812-2.7c1.913-1.467,2.438-4.568-2.108-6.6a21,21,0,0,0-2.848-.978l.633-7.488c12.473-5.1,4.661-10.25,4.661-10.25a14.426,14.426,0,0,0-3.632-1.849l.432-5.1a.2.2,0,0,0-.252-.209L18.882,6.675a.2.2,0,0,0-.144.209l.122,1.59a40.366,40.366,0,0,0-9.854,2.079.206.206,0,0,0-.043.367L13.055,13.8a.207.207,0,0,0,.144.036c.468-.086,2.92-.554,3.9-.77a19.885,19.885,0,0,1,2.093-.338L19.975,22.9l-.216-2.712s-6.733,3.266-6.632,5.575c.094,2.208,1.82,3.863,7.488,5.416l.446,5.754c-3.352,1.446-3.841,3.561-3.769,4.927a4.1,4.1,0,0,0,2.453,3.906,10.071,10.071,0,0,0,2.064.878l.475,6.193a.2.2,0,0,0,.2.187h1.6a.192.192,0,0,0,.2-.18l.475-5.639a13.629,13.629,0,0,0,2.978-.079c.043,0,.964-.165,1.208-.23A23.733,23.733,0,0,0,23.759,0ZM11.84,11.192c-.345,0-.626-.158-.626-.352s.281-.352.626-.352.626.158.626.352S12.185,11.192,11.84,11.192Zm16.371,3.769a1.489,1.489,0,0,1-.878,1.964l-.058.647.295-3.467a2.389,2.389,0,0,1,.64.849ZM19.205,26.024a2.124,2.124,0,0,1,.863-1.913l.245,3.194c-.7-.345-1.122-.748-1.115-1.28Zm2.208,17.537c-1.216-1.223-.1-3.294-.1-3.294h0l.266,3.445a1.72,1.72,0,0,1-.165-.158Z" fill="#fff"/><path d="M101.311,34.32h-1.029a1.37,1.37,0,0,0-1.309.561L93.082,45.289l-.813,1.777L91.457,45.1,85.566,34.881a1.37,1.37,0,0,0-1.309-.561H83.134c-.834,0-1.244.23-1.244.683V55.575c0,.46.417.683,1.244.683h.216c.834,0,1.244-.23,1.244-.683V38.621l6.359,11.1a.716.716,0,0,0,.683.4h1.244a.728.728,0,0,0,.683-.4l6.265-10.912V55.575c0,.46.417.683,1.244.683h.216c.834,0,1.244-.23,1.244-.683V35c0-.453-.417-.683-1.244-.683Z" transform="translate(-22.986 -9.634)" fill="#fff"/><path d="M135.561,35.34a.672.672,0,0,0,.187-.417.645.645,0,0,0-.23-.424.694.694,0,0,0-.453-.216.626.626,0,0,0-.439.252l-1.712,1.9a9.785,9.785,0,0,0-6.905-2.273,8.672,8.672,0,0,0-6.891,2.791q-2.449,2.794-2.446,8.243a13.654,13.654,0,0,0,1.748,7.358l-2.273,2.5a.8.8,0,0,0-.187.453.615.615,0,0,0,.237.424.679.679,0,0,0,.439.216.667.667,0,0,0,.453-.281l2.086-2.309q2.428,2.805,7.121,2.805t7.15-2.856q2.46-2.848,2.46-8.107t-2.151-8.056l1.805-1.992Zm-16.055,9.847c0-2.848.575-5,1.726-6.467a5.905,5.905,0,0,1,4.942-2.194,6.134,6.134,0,0,1,4.891,1.935l-10.66,11.876a12.934,12.934,0,0,1-.906-5.143Zm11.811,6.546a6.157,6.157,0,0,1-5.172,2.244,5.735,5.735,0,0,1-5.114-2.525l10.782-12a12.226,12.226,0,0,1,1.244,6.092,9.837,9.837,0,0,1-1.748,6.186Z" transform="translate(-32.55 -9.589)" fill="#fff"/><path d="M161.625,53.837h-8.574V35.013c0-.453-.417-.683-1.244-.683h-.252c-.834,0-1.244.23-1.244.683V55.276a.825.825,0,0,0,.935.935h10.38c.417,0,.626-.309.626-.935v-.5c0-.626-.209-.935-.626-.935Z" transform="translate(-42.192 -9.636)" fill="#fff"/><path d="M186.763,34.32h-.252c-.834,0-1.244.23-1.244.683v8.819H173.981V35c0-.453-.417-.683-1.244-.683h-.252c-.834,0-1.244.23-1.244.683V55.575c0,.46.417.683,1.244.683h.252c.834,0,1.244-.23,1.244-.683V46.2h11.286v9.38c0,.46.417.683,1.244.683h.252c.834,0,1.244-.23,1.244-.683V35c0-.453-.417-.683-1.244-.683Z" transform="translate(-48.067 -9.634)" fill="#fff"/><path d="M210.825,34.15q-4.7,0-7.15,2.791t-2.446,8.243q0,5.449,2.46,8.308t7.15,2.856q4.683,0,7.157-2.856t2.46-8.308q0-5.459-2.46-8.243T210.825,34.15Zm5.049,17.58a6.787,6.787,0,0,1-10.085,0q-1.726-2.244-1.726-6.531c0-2.856.575-5.021,1.726-6.481a6.015,6.015,0,0,1,5.035-2.194,6.082,6.082,0,0,1,5.049,2.194q1.748,2.2,1.748,6.481T215.875,51.73Z" transform="translate(-56.485 -9.586)" fill="#fff"/><path d="M245.9,53.837h-8.574V35.013c0-.453-.417-.683-1.244-.683h-.252c-.834,0-1.244.23-1.244.683V55.276a.825.825,0,0,0,.935.935H245.9c.417,0,.626-.309.626-.935v-.5c0-.626-.209-.935-.626-.935Z" transform="translate(-65.849 -9.636)" fill="#fff"/><path d="M274.631,34.32H273.6a1.37,1.37,0,0,0-1.309.561L266.4,45.289l-.813,1.777-.813-1.964-5.891-10.221a1.363,1.363,0,0,0-1.309-.561h-1.122c-.834,0-1.244.23-1.244.683V55.575c0,.46.417.683,1.244.683h.216c.834,0,1.244-.23,1.244-.683V38.621l6.359,11.1a.716.716,0,0,0,.683.4H266.2a.728.728,0,0,0,.683-.4l6.265-10.912V55.575c0,.46.417.683,1.244.683h.216c.834,0,1.244-.23,1.244-.683V35c0-.453-.417-.683-1.244-.683Z" transform="translate(-71.637 -9.634)" fill="#fff"/><path d="M82.514,19.579h.122c.41,0,.619-.115.619-.338V14.99h2.388a3.9,3.9,0,0,0,1.5-.309,3.172,3.172,0,0,0,.87-.518,2.588,2.588,0,0,0,.647-.928,3.578,3.578,0,0,0,.266-1.46,3.137,3.137,0,0,0-.338-1.489,2.1,2.1,0,0,0-.906-.928,4.69,4.69,0,0,0-2.187-.518H82.37a.405.405,0,0,0-.46.46v9.948c0,.223.209.338.619.338Zm.741-9.574h2.187a2.63,2.63,0,0,1,1.46.4,1.591,1.591,0,0,1,.619,1.431,2.255,2.255,0,0,1-.2,1,1.437,1.437,0,0,1-.511.619,2.109,2.109,0,0,1-1.151.367h-2.4V10Z" transform="translate(-22.992 -2.481)" fill="#fff"/><path d="M96.037,19.579h.122c.41,0,.619-.115.619-.338V14.832h1.388a2.764,2.764,0,0,1,1.446.316,2.347,2.347,0,0,1,.849,1.187l1.172,3c.065.165.266.245.619.245h.151c.432,0,.647-.079.647-.245a.8.8,0,0,0-.043-.216l-1.2-3.014a6.6,6.6,0,0,0-.64-1.316,1.462,1.462,0,0,0-.748-.6v-.065a2.572,2.572,0,0,0,1.769-2.582,2.338,2.338,0,0,0-.928-2.057,4.871,4.871,0,0,0-2.777-.647H95.9a.405.405,0,0,0-.46.46v9.948c0,.223.2.338.619.338Zm.741-9.574H98.7a2.39,2.39,0,0,1,1.525.446,1.546,1.546,0,0,1,.554,1.28,1.871,1.871,0,0,1-.575,1.4,1.921,1.921,0,0,1-1.4.561H96.778V10.02Z" transform="translate(-26.79 -2.481)" fill="#fff"/><path d="M110.281,8.8h-.122c-.41,0-.619.115-.619.338v10.1c0,.223.2.338.619.338h.122c.41,0,.619-.115.619-.338V9.138c0-.223-.209-.338-.619-.338Z" transform="translate(-30.748 -2.47)" fill="#fff"/><path d="M119.2,19.568h.475c.36,0,.561-.079.619-.245l3.525-10.049a.8.8,0,0,0,.043-.216c0-.173-.223-.259-.662-.259h-.094c-.36,0-.568.079-.619.245L119.642,17.2l-.2.813-.165-.8-2.848-8.171c-.05-.165-.259-.245-.619-.245h-.137c-.439,0-.662.086-.662.259a.675.675,0,0,0,.043.2l3.525,10.07c.05.165.259.245.619.245Z" transform="translate(-32.283 -2.47)" fill="#fff"/><path d="M129.765,19.565h.079c.36,0,.561-.079.619-.245l.878-2.51h4.524l.906,2.51c.05.165.259.245.619.245h.122c.439,0,.662-.086.662-.259a.535.535,0,0,0-.043-.2l-3.647-10.07c-.05-.165-.259-.245-.619-.245h-.446c-.36,0-.561.079-.619.245l-3.647,10.049a.8.8,0,0,0-.043.216c0,.173.223.259.662.259Zm3.618-8.473.245-.885.2.885,1.618,4.56h-3.676l1.618-4.56Z" transform="translate(-36.241 -2.467)" fill="#fff"/><path d="M151.29,9.545V9.3c0-.309-.1-.46-.309-.46h-7.222c-.209,0-.309.151-.309.46v.245c0,.309.1.46.309.46h2.956v9.243c0,.223.2.338.619.338h.122c.41,0,.619-.115.619-.338V10.005h2.906c.209,0,.309-.151.309-.46Z" transform="translate(-40.266 -2.481)" fill="#fff"/><path d="M165.575,8.8h-.122c-.41,0-.619.115-.619.338v4.33h-5.575V9.138c0-.223-.209-.338-.619-.338h-.122c-.41,0-.619.115-.619.338v10.1c0,.223.2.338.619.338h.122c.41,0,.619-.115.619-.338v-4.6h5.575v4.6c0,.223.2.338.619.338h.122c.41,0,.619-.115.619-.338V9.138c0-.223-.2-.338-.619-.338Z" transform="translate(-44.322 -2.47)" fill="#fff"/><path d="M178.567,19.607a4.42,4.42,0,0,0,3.532-1.4,6.044,6.044,0,0,0,1.216-4.078,5.924,5.924,0,0,0-1.216-4.05,5.256,5.256,0,0,0-7.071,0,5.948,5.948,0,0,0-1.208,4.05,6.031,6.031,0,0,0,1.216,4.078,4.42,4.42,0,0,0,3.532,1.4Zm-2.5-8.653a2.974,2.974,0,0,1,2.482-1.079,3.012,3.012,0,0,1,2.5,1.079,5,5,0,0,1,.863,3.179,5.134,5.134,0,0,1-.863,3.208,2.977,2.977,0,0,1-2.5,1.1,2.94,2.94,0,0,1-2.482-1.1,5.167,5.167,0,0,1-.856-3.208A5.047,5.047,0,0,1,176.071,10.954Z" transform="translate(-48.791 -2.445)" fill="#fff"/><path d="M195.7,14.328a5.457,5.457,0,0,0-.971-.59c-.352-.165-.712-.316-1.072-.446s-.683-.259-.971-.388a1.456,1.456,0,0,1-1-1.316,1.557,1.557,0,0,1,.539-1.28,2.25,2.25,0,0,1,1.446-.439,3.436,3.436,0,0,1,1.69.432,1.042,1.042,0,0,0,.324.151q.108,0,.3-.324a1.082,1.082,0,0,0,.194-.489c0-.252-.288-.475-.863-.655a5.229,5.229,0,0,0-1.618-.273,3.8,3.8,0,0,0-2.482.77,2.519,2.519,0,0,0-.942,2.043,2.543,2.543,0,0,0,.518,1.64,3.093,3.093,0,0,0,1.252.949c.5.2.985.4,1.467.575a3.837,3.837,0,0,1,1.244.726,1.576,1.576,0,0,1,.518,1.237,1.663,1.663,0,0,1-.561,1.288,1.947,1.947,0,0,1-1.352.5,4.478,4.478,0,0,1-1.41-.2,5.189,5.189,0,0,1-.957-.388,1.879,1.879,0,0,0-.381-.194c-.079,0-.194.108-.331.324a1.073,1.073,0,0,0-.209.5c0,.237.324.482.964.734a6.527,6.527,0,0,0,2.381.381,3.4,3.4,0,0,0,2.338-.806,2.76,2.76,0,0,0,.921-2.208,3.058,3.058,0,0,0-.281-1.345,2.588,2.588,0,0,0-.712-.921Z" transform="translate(-53.355 -2.445)" fill="#fff"/><path d="M203.514,19.579h.122c.41,0,.619-.115.619-.338V14.99h2.388a3.872,3.872,0,0,0,1.5-.309,3.171,3.171,0,0,0,.87-.518,2.588,2.588,0,0,0,.647-.928,3.578,3.578,0,0,0,.266-1.46,3.137,3.137,0,0,0-.338-1.489,2.134,2.134,0,0,0-.906-.928,4.69,4.69,0,0,0-2.187-.518H203.37a.405.405,0,0,0-.46.46v9.948c0,.223.2.338.619.338Zm.741-9.574h2.187a2.63,2.63,0,0,1,1.46.4,1.591,1.591,0,0,1,.619,1.431,2.255,2.255,0,0,1-.2,1,1.437,1.437,0,0,1-.511.619,2.109,2.109,0,0,1-1.151.367h-2.4V10Z" transform="translate(-56.957 -2.481)" fill="#fff"/><path d="M217.029,19.565h.122c.41,0,.619-.115.619-.338V9.128c0-.223-.209-.338-.619-.338h-.122c-.41,0-.619.115-.619.338v10.1C216.41,19.45,216.619,19.565,217.029,19.565Z" transform="translate(-60.746 -2.467)" fill="#fff"/><path d="M229.4,8.84h-7.222c-.209,0-.309.151-.309.46v.245c0,.309.1.46.309.46h2.956v9.243c0,.223.2.338.619.338h.122c.41,0,.619-.115.619-.338V10.005H229.4c.209,0,.309-.151.309-.46V9.3C229.71,8.991,229.61,8.84,229.4,8.84Z" transform="translate(-62.279 -2.481)" fill="#fff"/><path d="M235.264,19.565c.36,0,.561-.079.619-.245l.878-2.51h4.524l.906,2.51c.05.165.259.245.619.245h.122c.439,0,.662-.086.662-.259a.535.535,0,0,0-.043-.2L239.9,9.035c-.05-.165-.259-.245-.619-.245h-.446c-.36,0-.561.079-.619.245l-3.647,10.049a.8.8,0,0,0-.043.216c0,.173.223.259.662.259h.079Zm3.539-8.473.245-.885.2.885,1.618,4.56h-3.676l1.618-4.56Z" transform="translate(-65.832 -2.467)" fill="#fff"/><path d="M250.99,19.536h5.129c.2,0,.309-.151.309-.46v-.245c0-.309-.1-.46-.309-.46h-4.229V9.128c0-.223-.209-.338-.619-.338h-.122c-.41,0-.619.115-.619.338v9.948A.405.405,0,0,0,250.99,19.536Z" transform="translate(-70.324 -2.467)" fill="#fff"/><path d="M262.41,19.548H267.8c.2,0,.309-.151.309-.46v-.245c0-.309-.1-.46-.309-.46h-4.5V14.649h4.014c.2,0,.309-.151.309-.46v-.245c0-.309-.1-.46-.309-.46H263.3V10h4.481c.209,0,.309-.151.309-.46V9.29c0-.309-.1-.46-.309-.46H262.41a.405.405,0,0,0-.46.46v9.79a.405.405,0,0,0,.46.46Z" transform="translate(-73.529 -2.479)" fill="#fff"/><path d="M280.581,8.84h-7.222c-.209,0-.309.151-.309.46v.245c0,.309.1.46.309.46h2.956v9.243c0,.223.2.338.619.338h.122c.41,0,.619-.115.619-.338V10.005h2.906c.209,0,.309-.151.309-.46V9.3C280.89,8.991,280.79,8.84,280.581,8.84Z" transform="translate(-76.645 -2.481)" fill="#fff"/></svg>