<svg xmlns="http://www.w3.org/2000/svg" xmlns:xlink="http://www.w3.org/1999/xlink" width="500" zoomAndPan="magnify" viewBox="0 0 375 374.999991" height="500" preserveAspectRatio="xMidYMid meet" version="1.0"><defs><clipPath id="1e7089136f"><path d="M 43.566406 40.847656 L 361 40.847656 L 361 337.847656 L 43.566406 337.847656 Z M 43.566406 40.847656 " clip-rule="nonzero"/></clipPath><clipPath id="3ee0c34bba"><path d="M 107.222656 108.894531 L 267.722656 108.894531 L 267.722656 269.394531 L 107.222656 269.394531 Z M 107.222656 108.894531 " clip-rule="nonzero"/></clipPath></defs><rect x="-37.5" width="450" fill="#ffffff" y="-37.499999" height="449.999989" fill-opacity="1"/><rect x="-37.5" width="450" fill="#304ffe" y="-37.499999" height="449.999989" fill-opacity="1"/><g clip-path="url(#1e7089136f)"><path fill="#ffffff" d="M 351.675781 233.703125 C 351.78125 233.457031 351.890625 233.214844 351.996094 232.96875 C 352.433594 231.953125 352.851562 230.929688 353.269531 229.902344 C 353.472656 229.402344 353.671875 228.902344 353.871094 228.402344 C 354.226562 227.507812 354.570312 226.609375 354.90625 225.710938 C 355.160156 225.035156 355.40625 224.355469 355.652344 223.675781 C 355.933594 222.898438 356.210938 222.121094 356.480469 221.34375 C 356.789062 220.453125 357.082031 219.554688 357.371094 218.65625 C 357.570312 218.054688 357.773438 217.453125 357.960938 216.847656 C 358.441406 215.316406 358.898438 213.78125 359.332031 212.242188 C 360.546875 207.929688 361.703125 202.9375 360.007812 198.296875 C 358.453125 194.050781 354.613281 190.613281 349.464844 188.867188 C 348.300781 188.472656 347.113281 188.179688 345.910156 187.953125 C 345.859375 187.835938 345.800781 187.71875 345.730469 187.613281 C 345.082031 186.585938 343.9375 186.242188 343.132812 186.046875 C 341.902344 185.75 341.710938 186.128906 340.671875 185.828125 C 339.207031 185.40625 339.144531 184.527344 337.933594 184.117188 C 336.578125 183.660156 335.003906 184.199219 334 184.972656 C 332.566406 186.074219 331.617188 188.164062 332.328125 190.175781 C 333.074219 192.285156 335.3125 193.386719 336.933594 193.183594 C 338.433594 192.992188 338.609375 191.785156 340.722656 191.460938 C 341.527344 191.339844 341.902344 191.453125 343.308594 191.214844 C 344.832031 190.960938 345.273438 190.671875 345.441406 190.527344 C 346.519531 190.734375 347.582031 191.003906 348.625 191.359375 C 352.949219 192.824219 356.28125 195.753906 357.539062 199.199219 C 358.964844 203.105469 357.910156 207.609375 356.804688 211.527344 C 356.378906 213.046875 355.921875 214.558594 355.453125 216.066406 C 355.269531 216.65625 355.070312 217.242188 354.878906 217.832031 C 354.589844 218.722656 354.296875 219.609375 353.992188 220.496094 C 353.730469 221.253906 353.460938 222.007812 353.1875 222.765625 C 352.941406 223.449219 352.695312 224.128906 352.4375 224.808594 C 352.113281 225.679688 351.777344 226.550781 351.4375 227.414062 C 351.234375 227.929688 351.027344 228.441406 350.820312 228.953125 C 350.417969 229.941406 350.011719 230.933594 349.589844 231.914062 C 349.476562 232.183594 349.355469 232.453125 349.238281 232.722656 C 347.046875 237.765625 344.609375 242.707031 341.933594 247.515625 C 341.886719 247.597656 341.84375 247.679688 341.796875 247.761719 C 341.128906 247.871094 340.519531 248.285156 340.164062 248.902344 C 335.394531 257.234375 329.886719 265.175781 323.792969 272.507812 C 321.460938 275.308594 318.691406 278.476562 315.296875 280.570312 C 311.898438 282.667969 308.1875 283.378906 305.117188 282.523438 L 305.03125 282.5 C 301.929688 281.769531 299.023438 279.355469 297.058594 275.878906 C 295.097656 272.402344 294.199219 268.292969 293.515625 264.714844 C 291.714844 255.328125 290.722656 245.691406 290.570312 236.066406 C 290.558594 235.367188 290.214844 234.75 289.695312 234.351562 C 289.695312 234.289062 289.695312 234.222656 289.695312 234.160156 C 289.671875 228.605469 289.921875 223.054688 290.445312 217.53125 C 290.46875 217.261719 290.492188 216.996094 290.519531 216.726562 C 290.625 215.644531 290.75 214.566406 290.878906 213.488281 C 290.941406 212.957031 291.003906 212.429688 291.070312 211.902344 C 291.191406 210.964844 291.324219 210.027344 291.460938 209.089844 C 291.5625 208.386719 291.667969 207.6875 291.78125 206.988281 C 291.910156 206.183594 292.039062 205.375 292.179688 204.574219 C 292.335938 203.664062 292.507812 202.757812 292.683594 201.855469 C 292.800781 201.234375 292.914062 200.613281 293.039062 199.996094 C 293.355469 198.449219 293.683594 196.910156 294.042969 195.375 C 294.96875 191.410156 296.21875 186.953125 299.351562 184.222656 C 302.117188 181.8125 306.453125 180.855469 310.949219 181.660156 C 312.03125 181.855469 313.09375 182.132812 314.136719 182.476562 C 314.214844 182.683594 314.46875 183.148438 315.667969 184.101562 C 316.785156 184.984375 317.171875 185.070312 317.816406 185.566406 C 319.511719 186.871094 319.082031 188.011719 320.300781 188.902344 C 321.621094 189.863281 324.113281 189.980469 325.785156 188.492188 C 327.378906 187.074219 327.558594 184.785156 326.835938 183.128906 C 326.328125 181.96875 325.210938 180.734375 323.804688 180.480469 C 322.542969 180.253906 322.0625 180.992188 320.578125 180.65625 C 319.523438 180.417969 319.539062 179.996094 318.3125 179.660156 C 317.515625 179.441406 316.351562 179.191406 315.285156 179.773438 C 315.171875 179.835938 315.066406 179.90625 314.964844 179.988281 C 313.800781 179.605469 312.617188 179.289062 311.410156 179.074219 C 306.058594 178.121094 301.035156 179.269531 297.625 182.242188 C 293.902344 185.484375 292.5 190.414062 291.480469 194.777344 C 291.117188 196.335938 290.78125 197.902344 290.460938 199.472656 C 290.335938 200.09375 290.222656 200.71875 290.101562 201.34375 C 289.925781 202.269531 289.75 203.195312 289.585938 204.125 C 289.445312 204.933594 289.316406 205.746094 289.1875 206.558594 C 289.070312 207.277344 288.960938 207.996094 288.855469 208.71875 C 288.714844 209.660156 288.585938 210.605469 288.464844 211.550781 C 288.394531 212.097656 288.328125 212.644531 288.265625 213.191406 C 288.132812 214.277344 288.011719 215.363281 287.902344 216.453125 C 287.871094 216.742188 287.851562 217.027344 287.824219 217.316406 C 287.296875 222.878906 287.042969 228.476562 287.066406 234.085938 C 287.066406 234.167969 287.0625 234.246094 287.0625 234.328125 C 286.527344 234.722656 286.179688 235.355469 286.1875 236.074219 C 286.34375 245.972656 287.359375 255.886719 289.210938 265.539062 C 289.964844 269.460938 290.957031 273.980469 293.242188 278.03125 C 294.042969 279.449219 294.976562 280.730469 296.011719 281.855469 C 297.195312 283.144531 297.160156 285.132812 295.96875 286.414062 C 294.511719 287.972656 293.019531 289.503906 291.496094 290.988281 C 290.574219 291.894531 290.214844 293.15625 290.417969 294.34375 C 263.828125 319.25 228.65625 333.304688 191.894531 333.304688 C 112.429688 333.304688 47.785156 268.65625 47.785156 189.195312 C 47.785156 109.730469 112.429688 45.082031 191.890625 45.082031 C 247.261719 45.082031 297.695312 77.183594 321.574219 126.28125 C 320.957031 127.320312 320.839844 128.632812 321.382812 129.8125 C 323.289062 133.953125 325 138.238281 326.5 142.554688 C 322.230469 145.140625 319.371094 149.8125 319.371094 155.167969 C 319.371094 163.320312 325.980469 169.929688 334.128906 169.929688 C 342.28125 169.929688 348.890625 163.320312 348.890625 155.167969 C 348.890625 147.015625 342.28125 140.410156 334.128906 140.410156 C 334.015625 140.410156 333.902344 140.425781 333.789062 140.425781 C 332.1875 135.757812 330.335938 131.121094 328.28125 126.640625 C 327.722656 125.425781 326.605469 124.652344 325.375 124.472656 C 314.535156 102.089844 298.28125 82.820312 277.730469 68.214844 C 252.5625 50.324219 222.878906 40.867188 191.890625 40.867188 C 110.101562 40.867188 43.566406 107.40625 43.566406 189.191406 C 43.566406 270.980469 110.101562 337.519531 191.890625 337.519531 C 229.742188 337.519531 265.953125 323.046875 293.324219 297.398438 C 293.597656 297.460938 293.871094 297.5 294.152344 297.5 C 295.113281 297.5 296.066406 297.136719 296.808594 296.417969 C 299.433594 293.84375 301.980469 291.152344 304.414062 288.386719 C 305.078125 287.636719 306.035156 287.183594 307.039062 287.238281 C 307.285156 287.25 307.535156 287.257812 307.785156 287.257812 C 311.023438 287.257812 314.449219 286.242188 317.597656 284.300781 C 321.554688 281.859375 324.605469 278.378906 327.160156 275.308594 C 333.433594 267.757812 339.101562 259.582031 344.007812 251.003906 C 344.367188 250.375 344.371094 249.648438 344.097656 249.03125 C 344.136719 248.964844 344.171875 248.894531 344.210938 248.824219 C 346.953125 243.902344 349.441406 238.855469 351.675781 233.703125 Z M 345.703125 155.167969 C 345.703125 161.5625 340.523438 166.742188 334.128906 166.742188 C 327.734375 166.742188 322.554688 161.5625 322.554688 155.167969 C 322.554688 148.777344 327.734375 143.59375 334.128906 143.59375 C 340.523438 143.59375 345.703125 148.777344 345.703125 155.167969 Z M 345.703125 155.167969 " fill-opacity="1" fill-rule="nonzero"/></g><path fill="#ffffff" d="M 334.128906 162.785156 C 338.328125 162.785156 341.742188 159.367188 341.742188 155.167969 C 341.742188 150.972656 338.328125 147.558594 334.128906 147.558594 C 329.929688 147.558594 326.515625 150.972656 326.515625 155.167969 C 326.515625 159.367188 329.929688 162.785156 334.128906 162.785156 Z M 334.128906 150.085938 C 336.933594 150.085938 339.210938 152.367188 339.210938 155.167969 C 339.210938 157.972656 336.933594 160.253906 334.128906 160.253906 C 331.324219 160.253906 329.046875 157.972656 329.046875 155.167969 C 329.046875 152.367188 331.328125 150.085938 334.128906 150.085938 Z M 334.128906 150.085938 " fill-opacity="1" fill-rule="nonzero"/><g clip-path="url(#3ee0c34bba)"><path fill="#ffffff" d="M 267.769531 162.410156 L 214.253906 162.410156 L 214.253906 108.894531 L 160.738281 108.894531 L 160.738281 162.410156 L 107.222656 162.410156 L 107.222656 215.925781 L 160.738281 215.925781 L 160.738281 269.441406 L 214.253906 269.441406 L 214.253906 215.925781 L 267.769531 215.925781 Z M 267.769531 162.410156 " fill-opacity="1" fill-rule="nonzero"/></g></svg>