<svg xmlns="http://www.w3.org/2000/svg" width="100.297" height="25.883" viewBox="0 0 100.297 25.883">
  <g id="Group_1" data-name="Group 1" transform="translate(-224.457 -168.017)">
    <path id="Path_1" data-name="Path 1" d="M237.4,175.209V183.3a4.853,4.853,0,1,1-9.706,0v-8.088h-3.236V183.3a8.089,8.089,0,1,0,16.177,0v-8.088Z" transform="translate(0 -2.339)" fill="#da001b"/>
    <path id="Path_2" data-name="Path 2" d="M258.915,175.209a8.088,8.088,0,0,0-8.088,8.088v12.942h3.236V183.3a4.853,4.853,0,1,1,4.853,4.853v3.236a8.089,8.089,0,1,0,0-16.177" transform="translate(-8.575 -2.339)" fill="#da001b"/>
    <path id="Path_3" data-name="Path 3" d="M285.285,176.105V172.87h-4.853v-4.853H277.2v12.942a8.088,8.088,0,0,0,8.088,8.088h0v-3.236a4.853,4.853,0,0,1-4.853-4.853v-4.853Z" transform="translate(-17.15)" fill="#030404"/>
    <rect id="Rectangle_1" data-name="Rectangle 1" width="3.235" height="16.177" transform="translate(271.371 172.87)" fill="#030404"/>
    <rect id="Rectangle_2" data-name="Rectangle 2" width="3.235" height="3.235" transform="translate(271.371 168.018)" fill="#030404"/>
    <path id="Path_4" data-name="Path 4" d="M324.6,175.209a8.075,8.075,0,0,0-6.47,3.235,8.089,8.089,0,0,0-14.56,4.853v8.089H306.8V183.3a4.853,4.853,0,1,1,9.706,0v8.089h3.236V183.3a4.853,4.853,0,1,1,9.707,0v8.089h3.236V183.3a8.087,8.087,0,0,0-8.088-8.088" transform="translate(-25.725 -2.339)" fill="#030404"/>
    <path id="Path_5" data-name="Path 5" d="M357.2,175.209a8.089,8.089,0,1,0,0,16.177v-3.236a4.853,4.853,0,1,1,4.571-6.471H357.2v3.236h7.926a8.1,8.1,0,0,0-7.926-9.706" transform="translate(-40.537 -2.339)" fill="#030404"/>
  </g>
</svg>
